<svg xmlns="http://www.w3.org/2000/svg" version="1.1" xmlnsXlink="http://www.w3.org/1999/xlink" xmlnssvgjs="http://svgjs.dev/svgjs" width="1500" height="280" viewBox="0 0 1500 280"><g transform="matrix(1,0,0,1,-0.1393893646380775,-0.08245853160318006)"><svg viewBox="0 0 396 74" data-background-color="#3d5a3c" preserveAspectRatio="xMidYMid meet" height="280" width="1500" xmlns="http://www.w3.org/2000/svg" xmlns:xlink="http://www.w3.org/1999/xlink"><g id="tight-bounds" transform="matrix(1,0,0,1,0.2400000000000091,0.021792611923700633)"><svg viewBox="0 0 395.52 73.9564147761526" height="73.9564147761526" width="395.52"><g><svg viewBox="0 0 522.541812332673 97.70762290341236" height="73.9564147761526" width="395.52"><g><rect width="8.767536584772701" height="97.70762290341236" x="95.30260929561578" y="0" fill="#799a78" opacity="1" stroke-width="0" stroke="transparent" fill-opacity="1" class="rect-yte-0" data-fill-palette-color="primary" rx="1%" id="yte-0" data-palette-color="#799a78"></rect></g><g transform="matrix(1,0,0,1,127.02181233267304,0.24305378831694213)"><svg viewBox="0 0 395.52 97.22151532677847" height="97.22151532677847" width="395.52"><g id="textblocktransform"><svg viewBox="0 0 395.52 97.22151532677847" height="97.22151532677847" width="395.52" id="textblock"><g><svg viewBox="0 0 395.52 97.22151532677847" height="97.22151532677847" width="395.52"><g transform="matrix(1,0,0,1,0,0)"><svg width="395.52" viewBox="3.78 -33.13 172.88 42.510000000000005" height="97.22151532677847" data-palette-color="#799a78"><path d="M17.05 0L6.6 0 6.6-3.43 16.65-3.43Q19.9-3.43 21.26-4.81 22.63-6.2 22.63-8.65L22.63-8.65 22.63-9.55Q22.63-12.05 21.24-13.43 19.85-14.8 16.4-14.8L16.4-14.8 6.63-14.8 6.63-18.07 16.35-18.07Q19.43-18.07 20.74-19.41 22.05-20.75 22.05-23.13L22.05-23.13 22.05-23.58Q22.05-25.93 20.79-27.24 19.53-28.55 16.32-28.55L16.32-28.55 6.53-28.55 6.53-31.95 16.7-31.95Q21.8-31.95 24-29.93 26.2-27.9 26.2-24.23L26.2-24.23 26.2-23.73Q26.2-20.8 24.8-19.13 23.4-17.45 20.45-17.13L20.45-17.13 20.43-16.98Q23.8-16.48 25.33-14.63 26.85-12.78 26.85-9.47L26.85-9.47 26.85-8.45Q26.85-4.48 24.55-2.24 22.25 0 17.05 0L17.05 0ZM7.88 0L3.78 0 3.78-31.95 7.88-31.95 7.88 0ZM32.05-24.4L36.07-24.4 36.07-9.22Q36.07-7.3 36.61-5.86 37.15-4.42 38.37-3.64 39.6-2.85 41.67-2.85L41.67-2.85Q43.62-2.85 45.02-3.56 46.42-4.28 47.31-5.53 48.2-6.78 48.52-8.35L48.52-8.35 49.25-5.48 48.37-5.48Q48-3.83 47-2.46 46-1.1 44.31-0.29 42.62 0.53 40.15 0.53L40.15 0.53Q37.27 0.53 35.48-0.56 33.7-1.65 32.87-3.74 32.05-5.83 32.05-8.78L32.05-8.78 32.05-24.4ZM48.35-24.4L52.4-24.4 52.4 0 48.35 0 48.52-5.85 48.35-6.1 48.35-24.4ZM67.05 0.53L67.05 0.53Q62.65 0.53 60.35-2.2 58.05-4.93 58.05-10.15L58.05-10.15 58.05-14.18Q58.05-19.43 60.37-22.19 62.7-24.95 67.22-24.95L67.22-24.95Q69.47-24.95 71.12-24.19 72.77-23.43 73.8-22.05 74.82-20.68 75.17-18.8L75.17-18.8 76.5-18.8 75.3-15.08Q75.22-17.23 74.33-18.69 73.45-20.15 71.93-20.9 70.42-21.65 68.47-21.65L68.47-21.65Q65.37-21.65 63.73-19.85 62.1-18.05 62.1-14.55L62.1-14.55 62.1-9.9Q62.1-6.45 63.73-4.65 65.37-2.85 68.47-2.85L68.47-2.85Q70.32-2.85 71.75-3.56 73.17-4.28 74.11-5.54 75.05-6.8 75.4-8.4L75.4-8.4 76.4-5.5 75.2-5.5Q74.85-3.85 73.86-2.48 72.87-1.1 71.21-0.29 69.55 0.53 67.05 0.53ZM79.25 0L75.2 0 75.37-5.9 75.3-7.2 75.3-17.4 75.32-18.25 75.22-25.18 75.22-33.13 79.25-33.13 79.25 0ZM95.34-7.3L95.34-7.3Q90.37-7.3 87.71-9.47 85.04-11.65 85.04-15.7L85.04-15.7 85.04-16.32Q85.04-18.85 86.08-20.73 87.12-22.6 89.39-23.66 91.67-24.73 95.34-24.83L95.34-24.83 107.79-25.23 107.79-22.03 100.44-22.28 100.42-22.1Q102.14-21.75 103.24-20.9 104.34-20.05 104.88-18.78 105.42-17.5 105.42-15.8L105.42-15.8 105.42-15.25Q105.42-11.38 102.87-9.34 100.32-7.3 95.34-7.3ZM95.17 6.15L95.17 6.15 95.74 6.15Q97.99 6.15 99.61 5.81 101.22 5.48 102.09 4.75 102.97 4.03 102.97 2.83L102.97 2.83 102.97 2.73Q102.97 1.33 101.96 0.59 100.94-0.15 98.49-0.38L98.49-0.38 91.59-1 92.74-1.05Q91.34-0.85 90.28-0.4 89.22 0.05 88.62 0.79 88.02 1.53 88.02 2.63L88.02 2.63 88.02 2.68Q88.02 3.95 88.89 4.73 89.77 5.5 91.37 5.83 92.97 6.15 95.17 6.15ZM95.67 9.38L94.94 9.38Q91.64 9.38 89.26 8.81 86.87 8.25 85.56 6.99 84.24 5.73 84.24 3.6L84.24 3.6 84.24 3.5Q84.24 2 84.96 1 85.67 0 86.88-0.58 88.09-1.15 89.59-1.35L89.59-1.35 89.57-1.5Q87.52-1.85 86.54-2.71 85.57-3.58 85.57-4.95L85.57-4.95 85.57-4.98Q85.57-5.93 86.01-6.6 86.44-7.28 87.33-7.68 88.22-8.08 89.59-8.18L89.59-8.18 89.59-8.68 94.24-7.5 92.34-7.55Q90.64-7.53 89.99-7.14 89.34-6.75 89.34-5.98L89.34-5.98 89.34-5.95Q89.34-5.13 90.27-4.7 91.19-4.28 93.42-4.03L93.42-4.03 99.34-3.43Q103.22-3.03 104.99-1.56 106.77-0.1 106.77 2.75L106.77 2.75 106.77 2.88Q106.77 5.15 105.42 6.6 104.07 8.05 101.59 8.71 99.12 9.38 95.67 9.38L95.67 9.38ZM95.29-10.3L95.29-10.3Q97.39-10.3 98.78-10.91 100.17-11.53 100.88-12.76 101.59-14 101.59-15.8L101.59-15.8 101.59-16.4Q101.59-18.15 100.91-19.38 100.22-20.6 98.84-21.24 97.47-21.88 95.39-21.88L95.39-21.88 95.24-21.88Q92.99-21.88 91.58-21.19 90.17-20.5 89.53-19.26 88.89-18.03 88.89-16.38L88.89-16.38 88.89-15.8Q88.89-14 89.61-12.78 90.32-11.55 91.74-10.93 93.17-10.3 95.29-10.3ZM121.72 0.55L121.72 0.55Q116.14 0.55 113.32-2.18 110.49-4.9 110.49-9.98L110.49-9.98 110.49-14.33Q110.49-19.48 113.12-22.26 115.74-25.05 120.79-25.05L120.79-25.05Q124.19-25.05 126.47-23.79 128.74-22.53 129.89-20.2 131.04-17.88 131.04-14.65L131.04-14.65 131.04-13.75Q131.04-12.95 130.98-12.15 130.92-11.35 130.82-10.58L130.82-10.58 127.09-10.58Q127.14-11.78 127.15-12.85 127.17-13.93 127.17-14.83L127.17-14.83Q127.17-17.05 126.45-18.59 125.74-20.13 124.33-20.94 122.92-21.75 120.79-21.75L120.79-21.75Q117.64-21.75 116.07-19.93 114.49-18.1 114.49-14.7L114.49-14.7 114.49-12.38 114.52-11.88 114.52-9.55Q114.52-8.03 114.97-6.8 115.42-5.58 116.38-4.69 117.34-3.8 118.83-3.34 120.32-2.88 122.37-2.88L122.37-2.88Q124.74-2.88 126.79-3.5 128.84-4.13 130.64-5.2L130.64-5.2 130.27-1.7Q128.64-0.68 126.49-0.06 124.34 0.55 121.72 0.55ZM129.97-10.58L112.62-10.58 112.62-13.63 129.97-13.63 129.97-10.58ZM146.69 0.55L146.69 0.55Q141.11 0.55 138.29-2.18 135.46-4.9 135.46-9.98L135.46-9.98 135.46-14.33Q135.46-19.48 138.09-22.26 140.71-25.05 145.76-25.05L145.76-25.05Q149.16-25.05 151.44-23.79 153.71-22.53 154.86-20.2 156.01-17.88 156.01-14.65L156.01-14.65 156.01-13.75Q156.01-12.95 155.95-12.15 155.89-11.35 155.79-10.58L155.79-10.58 152.06-10.58Q152.11-11.78 152.13-12.85 152.14-13.93 152.14-14.83L152.14-14.83Q152.14-17.05 151.43-18.59 150.71-20.13 149.3-20.94 147.89-21.75 145.76-21.75L145.76-21.75Q142.61-21.75 141.04-19.93 139.46-18.1 139.46-14.7L139.46-14.7 139.46-12.38 139.49-11.88 139.49-9.55Q139.49-8.03 139.94-6.8 140.39-5.58 141.35-4.69 142.31-3.8 143.8-3.34 145.29-2.88 147.34-2.88L147.34-2.88Q149.71-2.88 151.76-3.5 153.81-4.13 155.61-5.2L155.61-5.2 155.24-1.7Q153.61-0.68 151.46-0.06 149.31 0.55 146.69 0.55ZM154.94-10.58L137.59-10.58 137.59-13.63 154.94-13.63 154.94-10.58ZM170.29 0.5L170.29 0.5Q167.46 0.5 165.74-0.35 164.01-1.2 163.24-2.93 162.46-4.65 162.46-7.23L162.46-7.23 162.46-22.63 166.46-22.63 166.46-7.7Q166.46-5.3 167.56-4.16 168.66-3.03 171.26-3.03L171.26-3.03Q172.74-3.03 174.1-3.35 175.46-3.68 176.66-4.28L176.66-4.28 176.29-0.8Q175.11-0.2 173.54 0.15 171.96 0.5 170.29 0.5ZM176.04-20.8L158.46-20.8 158.46-24.05 176.41-24.05 176.04-20.8ZM166.36-23.65L162.49-23.65 162.46-30.5 166.54-31.03 166.36-23.65Z" opacity="1" transform="matrix(1,0,0,1,0,0)" fill="#799a78" class="wordmark-text-0" data-fill-palette-color="primary" id="text-0"></path></svg></g></svg></g></svg></g></svg></g><g transform="matrix(1,0,0,1,0,0.24305378831694213)"><svg viewBox="0 0 72.35094284333123 97.22151532677847" height="97.22151532677847" width="72.35094284333123"><g><svg xmlnsdc="http://purl.org/dc/elements/1.1/" xmlnscc="http://creativecommons.org/ns#" xmlnsrdf="http://www.w3.org/1999/02/22-rdf-syntax-ns#" xmlnssvg="http://www.w3.org/2000/svg" xmlns="http://www.w3.org/2000/svg" xmlnssodipodi="http://sodipodi.sourceforge.net/DTD/sodipodi-0.dtd" xmlnsinkscape="http://www.inkscape.org/namespaces/inkscape" version="1.1" x="0" y="0" viewBox="18 6.999924218696947 64.00009860431989 86.00007578130317" height="97.22151532677847" width="72.35094284333123" class="icon-icon-0" data-fill-palette-color="accent" id="icon-0"><g transform="translate(0,-952.36218)" fill="#d09632" data-fill-palette-color="accent"><path d="M18.813 7A1.03 1.03 0 0 0 18 8V92C18 92.524 18.476 93 19 93H81C81.524 93 82 92.524 82 92V78C82.008 77.472 81.528 76.986 81 76.986S79.993 77.472 80 78V91H20V9H50V40C50.006 40.788 51.17 41.254 51.719 40.688L61 31.406 70.281 40.688C70.83 41.254 71.994 40.788 72 40V9H80V72C79.993 72.528 80.472 73.014 81 73.014S82.007 72.528 82 72V8C82 7.476 81.524 7 81 7H59C58.472 6.993 57.986 7.472 57.986 8S58.472 9.007 59 9H70V37.563L61.719 29.28C61.347 28.897 60.653 28.897 60.28 29.281L52 37.563V8C52 7.476 51.524 7 51 7z" transform="translate(0,952.36218)" fill="#d09632" fill-opacity="1" fill-rule="nonzero" stroke="none" marker="none" visibility="visible" display="inline" overflow="visible" text-indent="0" text-transform="none" direction="ltr" block-progression="tb" baseline-shift="baseline" color="#d09632" enable-background="accumulate" data-fill-palette-color="accent"></path></g></svg></g></svg></g></svg></g><defs></defs></svg><rect width="395.52" height="73.9564147761526" fill="none" stroke="none" visibility="hidden"></rect></g></svg></g></svg>